<?xml version="1.0" encoding="UTF-8"?>
<!DOCTYPE svg PUBLIC "-//W3C//DTD SVG 1.1//EN" "http://www.w3.org/Graphics/SVG/1.1/DTD/svg11.dtd">
<!-- Creator: CorelDRAW X8 -->
<svg xmlns="http://www.w3.org/2000/svg" xml:space="preserve" width="205mm" height="15mm" version="1.1" style="shape-rendering:geometricPrecision; text-rendering:geometricPrecision; image-rendering:optimizeQuality; fill-rule:evenodd; clip-rule:evenodd"
viewBox="0 0 20500 1500"
 xmlns:xlink="http://www.w3.org/1999/xlink">
 <defs>
  <style type="text/css">
   <![CDATA[
    .str1 {stroke:#FEFEFE;stroke-width:17.64}
    .str0 {stroke:#FEFEFE;stroke-width:17.64;stroke-dasharray:169.320000 169.320000}
    .fil0 {fill:none;fill-rule:nonzero}
    .fil1 {fill:black;fill-rule:nonzero}
   ]]>
  </style>
 </defs>
 <g id="Capa_x0020_1">
  <metadata id="CorelCorpID_0Corel-Layer"/>
  <line class="fil0 str0" x1="22219" y1="2628" x2="-1489" y2= "2628" />
  <g id="_2132768239088">
   <path class="fil1" d="M1226 202l-60 -84c-8,-12 -19,-18 -35,-18l-758 0c-70,0 -126,14 -168,42 -8,5 -17,13 -28,22 -10,10 -19,22 -28,36 -9,15 -17,32 -23,51 -6,20 -9,43 -9,69l0 345c0,14 1,30 2,47 2,17 6,34 12,51 6,18 16,34 28,50 11,16 28,30 48,43 21,13 45,23 72,30 27,6 56,10 86,10l220 0c105,0 178,-29 218,-88 9,-13 16,-29 22,-45 5,-16 9,-32 12,-49 3,-16 5,-31 6,-46 1,-15 2,-28 2,-38 0,-11 -1,-24 -1,-40 -1,-11 -3,-24 -6,-37l77 0 0 0 157 0c16,0 29,-7 38,-22 7,-14 6,-27 -3,-40l-61 -84c-8,-11 -20,-17 -35,-17l-391 0c-10,-1 -20,-1 -29,-1l-257 0 0 -54c0,-24 7,-42 20,-53 5,-5 12,-8 19,-11 7,-2 14,-4 22,-5 7,-1 14,-2 20,-2 7,-1 12,-1 16,-1l760 0c17,0 30,-7 38,-22 6,-13 5,-26 -3,-39zm-711 350c15,0 31,1 46,3 16,2 29,8 41,19 10,7 16,17 18,28 1,11 2,23 2,36 0,14 -1,28 -3,41 -2,13 -8,24 -17,32 -10,10 -22,17 -36,19 -14,2 -26,3 -37,3l-106 0c-24,0 -41,-2 -52,-6 -10,-4 -17,-7 -21,-10 -4,-4 -7,-10 -11,-18 -3,-8 -5,-22 -5,-41l0 -106 181 0z"/>
   <path class="fil1" d="M1842 441c21,-6 42,-9 61,-9 56,0 104,22 146,66 41,45 62,98 62,161 0,63 -22,116 -67,160 -45,44 -100,66 -165,66 -65,0 -119,-22 -162,-66 -43,-45 -65,-98 -65,-162 0,-31 6,-62 18,-95 12,-32 34,-72 66,-119l222 -332 73 45 -189 285zm39 360c40,0 74,-14 102,-43 28,-28 43,-62 43,-102 0,-40 -14,-74 -42,-102 -29,-28 -63,-42 -103,-42 -40,0 -74,14 -102,42 -28,28 -42,62 -42,102 0,40 14,74 42,102 29,29 63,43 102,43z"/>
   <path class="fil1" d="M2550 856l-84 0 0 -680c0,-11 4,-21 12,-29 9,-8 19,-12 30,-12l419 0 0 83 -377 0 0 202 311 0 -26 84 -285 0 0 352z"/>
   <path class="fil1" d="M3377 862c-57,0 -109,-8 -154,-25 -45,-17 -84,-41 -115,-72 -31,-32 -56,-71 -72,-116 -17,-45 -25,-96 -25,-154 0,-56 8,-108 25,-153 16,-45 41,-84 72,-116 31,-31 70,-56 115,-72 45,-17 97,-25 154,-25 57,0 109,8 154,25 45,16 84,41 115,72 32,32 56,71 73,116 16,45 25,97 25,153 0,58 -9,109 -25,154 -17,45 -41,84 -73,116 -31,31 -70,55 -115,72 -45,17 -97,25 -154,25zm0 -649c-92,0 -163,24 -211,72 -47,48 -71,119 -71,210 0,93 24,164 71,212 48,48 119,72 211,72 92,0 163,-24 211,-72 48,-48 72,-119 72,-212 0,-91 -24,-162 -72,-210 -48,-48 -119,-72 -211,-72z"/>
   <path class="fil1" d="M4492 856l-108 0 -228 -283 -202 0 0 283 -84 0 0 -678c0,-11 4,-21 13,-29 8,-8 18,-13 29,-13l302 0c29,1 57,7 83,19 26,12 49,28 68,47 19,19 35,43 46,69 11,26 17,55 17,84 0,27 -5,53 -14,77 -10,24 -23,46 -40,65 -16,19 -36,36 -58,48 -18,10 -37,18 -57,22l233 289zm-538 -367l255 0c18,0 36,-3 52,-10 16,-7 31,-17 43,-29 13,-13 22,-27 29,-43 7,-16 11,-34 11,-52 0,-19 -4,-37 -11,-53 -7,-16 -16,-30 -29,-42 -12,-12 -26,-22 -43,-29 -16,-7 -34,-11 -52,-11l-255 0 0 269z"/>
   <path class="fil1" d="M5016 856l-419 0c-11,0 -21,-4 -29,-12 -9,-9 -13,-19 -13,-30l0 -638c0,-11 4,-21 13,-29 8,-8 18,-12 29,-12l419 0 0 83 -377 0 0 202 311 0 -25 84 -286 0 0 268 377 0 0 84z"/>
   <path class="fil1" d="M5365 862c-82,0 -146,-18 -192,-53 -47,-36 -70,-86 -70,-150l0 -9 84 0 0 9c0,26 6,47 17,62 12,16 27,28 45,37 18,9 37,14 58,17 22,3 41,4 58,4 17,0 37,-1 58,-4 21,-3 41,-8 59,-17 17,-9 33,-21 45,-37 12,-15 18,-36 18,-62 0,-18 -3,-33 -9,-45 -5,-11 -15,-22 -28,-30 -15,-9 -34,-17 -58,-24 -25,-8 -56,-15 -93,-23 -30,-6 -61,-13 -90,-21 -31,-8 -58,-19 -82,-33 -24,-15 -44,-34 -59,-57 -16,-24 -23,-55 -23,-93 0,-64 23,-114 70,-150 46,-36 110,-54 192,-54 82,0 147,18 193,53 47,37 71,87 71,151l0 10 -84 0 0 -10c0,-26 -6,-46 -18,-62 -12,-15 -28,-28 -45,-36 -18,-9 -38,-15 -59,-18 -21,-3 -41,-4 -58,-4 -17,0 -36,1 -58,4 -21,3 -40,9 -58,18 -18,8 -33,21 -45,36 -11,15 -17,36 -17,62 0,18 3,33 9,45 5,12 15,22 29,31 15,9 34,17 58,24 24,8 55,15 92,23 30,6 60,13 90,21 30,8 57,19 81,33 25,15 45,34 60,57 15,24 23,55 23,92 0,64 -24,114 -71,150 -46,35 -111,53 -193,53z"/>
   <polygon class="fil1" points="6024,856 5940,856 5940,218 5718,218 5718,135 6245,135 6245,218 6024,218 "/>
   <path class="fil1" d="M2328 502c0,39 -32,71 -71,71 -39,0 -70,-32 -70,-71 0,-39 31,-70 70,-70 39,0 71,31 71,70z"/>
   <path class="fil1" d="M945 1205c-5,-7 -10,-13 -16,-18 -7,-4 -13,-8 -21,-10 -8,-3 -16,-4 -24,-4 -15,0 -28,3 -39,9 -11,5 -20,13 -26,22 -7,10 -12,21 -16,33 -3,11 -5,24 -5,36 0,13 2,25 5,37 4,12 9,22 16,32 6,9 15,17 26,23 11,6 24,8 39,8 11,0 20,-1 29,-5 8,-4 16,-9 22,-16 6,-7 11,-14 15,-23 4,-9 6,-18 7,-29l22 0c-2,14 -5,27 -10,38 -5,12 -12,21 -20,29 -8,8 -17,14 -28,18 -11,4 -24,7 -37,7 -18,0 -33,-4 -47,-10 -13,-7 -25,-15 -34,-26 -9,-11 -15,-24 -20,-38 -4,-14 -6,-29 -6,-45 0,-16 2,-31 6,-45 5,-14 11,-27 20,-38 9,-11 21,-19 34,-26 14,-6 29,-10 47,-10 11,0 22,2 32,5 10,3 20,8 28,14 8,7 15,15 21,24 6,9 9,19 11,31l-22 0c-2,-9 -5,-16 -9,-23z"/>
   <path class="fil1" d="M1090 1310c4,12 9,22 16,32 7,9 16,17 26,23 11,5 24,8 39,8 15,0 28,-3 39,-8 11,-6 20,-14 27,-23 6,-10 12,-20 15,-32 3,-12 5,-24 5,-37 0,-12 -2,-25 -5,-36 -3,-12 -9,-23 -15,-33 -7,-9 -16,-17 -27,-22 -11,-6 -24,-9 -39,-9 -15,0 -28,3 -39,9 -10,5 -19,13 -26,22 -7,10 -12,21 -16,33 -3,11 -5,24 -5,36 0,13 2,25 5,37zm-19 -82c4,-14 11,-27 20,-38 9,-11 20,-19 33,-26 14,-6 29,-10 47,-10 18,0 34,4 47,10 14,7 25,15 34,26 9,11 15,24 20,38 4,14 7,29 7,45 0,16 -3,31 -7,45 -5,14 -11,27 -20,38 -9,11 -20,19 -34,26 -13,6 -29,10 -47,10 -18,0 -33,-4 -47,-10 -13,-7 -24,-15 -33,-26 -9,-11 -16,-24 -20,-38 -5,-14 -7,-29 -7,-45 0,-16 2,-31 7,-45z"/>
   <polygon class="fil1" points="1398,1159 1398,1369 1526,1369 1526,1387 1376,1387 1376,1159 "/>
   <polygon class="fil1" points="1633,1159 1633,1369 1761,1369 1761,1387 1611,1387 1611,1159 "/>
   <polygon class="fil1" points="2004,1159 2004,1178 1868,1178 1868,1260 1995,1260 1995,1279 1868,1279 1868,1369 2005,1369 2005,1387 1846,1387 1846,1159 "/>
   <path class="fil1" d="M2257 1205c-5,-7 -10,-13 -16,-18 -7,-4 -13,-8 -21,-10 -8,-3 -16,-4 -24,-4 -15,0 -28,3 -39,9 -11,5 -19,13 -26,22 -7,10 -12,21 -16,33 -3,11 -5,24 -5,36 0,13 2,25 5,37 4,12 9,22 16,32 7,9 15,17 26,23 11,6 24,8 39,8 11,0 20,-1 29,-5 8,-4 16,-9 22,-16 6,-7 11,-14 15,-23 4,-9 6,-18 7,-29l22 0c-2,14 -5,27 -10,38 -5,12 -12,21 -20,29 -8,8 -17,14 -28,18 -11,4 -23,7 -37,7 -18,0 -33,-4 -47,-10 -13,-7 -25,-15 -34,-26 -8,-11 -15,-24 -20,-38 -4,-14 -6,-29 -6,-45 0,-16 2,-31 6,-45 5,-14 12,-27 20,-38 9,-11 21,-19 34,-26 14,-6 29,-10 47,-10 11,0 22,2 32,5 10,3 20,8 28,14 8,7 15,15 21,24 6,9 9,19 11,31l-22 0c-2,-9 -5,-16 -9,-23z"/>
   <polygon class="fil1" points="2544,1159 2544,1178 2465,1178 2465,1387 2443,1387 2443,1178 2364,1178 2364,1159 "/>
   <polygon class="fil1" points="2653,1387 2631,1387 2631,1159 2653,1159 "/>
   <path class="fil1" d="M2860 1369c8,0 16,-1 23,-2 7,-2 14,-4 19,-8 6,-4 10,-8 13,-14 4,-7 5,-14 5,-23 0,-15 -5,-26 -15,-33 -11,-8 -25,-11 -45,-11l-74 0 0 91 74 0zm0 -110c9,0 16,-1 23,-3 6,-2 12,-5 16,-8 4,-4 7,-8 9,-12 3,-5 4,-10 4,-15 0,-29 -18,-43 -52,-43l-74 0 0 81 74 0zm0 -100c10,0 19,1 28,3 9,2 16,5 23,9 7,5 12,10 16,17 4,8 6,17 6,27 0,6 -1,12 -3,18 -2,5 -4,10 -8,15 -3,4 -7,8 -12,11 -5,4 -10,6 -16,7l0 1c14,2 26,8 35,18 9,10 13,22 13,37 0,4 0,8 -1,13 -1,4 -2,9 -4,14 -2,4 -5,9 -8,14 -4,5 -9,9 -15,12 -6,4 -13,7 -22,9 -9,2 -20,3 -32,3l-96 0 0 -228 96 0z"/>
   <polygon class="fil1" points="3062,1159 3062,1369 3190,1369 3190,1387 3041,1387 3041,1159 "/>
   <polygon class="fil1" points="3433,1159 3433,1178 3297,1178 3297,1260 3424,1260 3424,1279 3297,1279 3297,1369 3435,1369 3435,1387 3276,1387 3276,1159 "/>
   <path class="fil1" d="M3803 1298l-44 -117 -46 117 90 0zm-31 -139l89 228 -23 0 -28 -71 -103 0 -28 71 -23 0 92 -228 24 0z"/>
   <path class="fil1" d="M4049 1267c6,0 13,-1 19,-3 6,-2 11,-4 15,-8 5,-4 8,-9 11,-14 3,-6 4,-12 4,-19 0,-14 -4,-25 -12,-33 -8,-8 -21,-12 -37,-12l-81 0 0 89 81 0zm1 -108c10,0 19,1 27,4 8,2 16,6 22,10 6,5 11,11 15,19 4,8 6,16 6,27 0,14 -4,27 -12,37 -7,11 -18,18 -33,21l0 0c8,1 14,3 19,6 5,3 9,7 12,11 3,5 5,10 6,16 2,6 3,12 3,19 0,4 1,8 1,14 0,5 0,11 1,16 1,6 2,11 3,16 2,5 3,9 6,12l-24 0c-2,-2 -3,-5 -3,-8 -1,-3 -2,-6 -2,-9 0,-4 0,-7 -1,-10 0,-3 0,-6 0,-8 -1,-8 -1,-16 -2,-24 -1,-8 -3,-15 -6,-22 -3,-6 -8,-11 -14,-15 -6,-4 -14,-5 -24,-5l-82 0 0 101 -22 0 0 -228 104 0z"/>
   <polygon class="fil1" points="4381,1159 4381,1178 4301,1178 4301,1387 4280,1387 4280,1178 4200,1178 4200,1159 "/>
   <polygon class="fil1" points="4774,1159 4774,1178 4695,1178 4695,1387 4673,1387 4673,1178 4594,1178 4594,1159 "/>
   <path class="fil1" d="M4874 1310c3,12 9,22 15,32 7,9 16,17 27,23 11,5 24,8 39,8 15,0 28,-3 39,-8 11,-6 19,-14 26,-23 7,-10 12,-20 16,-32 3,-12 5,-24 5,-37 0,-12 -2,-25 -5,-36 -4,-12 -9,-23 -16,-33 -7,-9 -15,-17 -26,-22 -11,-6 -24,-9 -39,-9 -15,0 -28,3 -39,9 -11,5 -20,13 -27,22 -6,10 -12,21 -15,33 -3,11 -5,24 -5,36 0,13 2,25 5,37zm-20 -82c5,-14 11,-27 20,-38 9,-11 20,-19 34,-26 13,-6 29,-10 47,-10 18,0 34,4 47,10 13,7 24,15 33,26 9,11 16,24 20,38 5,14 7,29 7,45 0,16 -2,31 -7,45 -4,14 -11,27 -20,38 -9,11 -20,19 -33,26 -13,6 -29,10 -47,10 -18,0 -34,-4 -47,-10 -14,-7 -25,-15 -34,-26 -9,-11 -15,-24 -20,-38 -4,-14 -7,-29 -7,-45 0,-16 3,-31 7,-45z"/>
   <polygon class="fil1" points="5134,1159 5159,1159 5235,1275 5309,1159 5335,1159 5245,1293 5245,1387 5223,1387 5223,1293 "/>
   <path class="fil1" d="M5434 1341c4,8 9,15 16,19 7,5 15,8 24,10 9,2 19,3 29,3 6,0 13,0 20,-2 7,-2 13,-4 19,-8 6,-4 11,-9 15,-15 5,-6 7,-13 7,-21 0,-6 -2,-12 -5,-16 -3,-5 -6,-9 -11,-12 -4,-3 -10,-6 -15,-8 -6,-2 -11,-4 -16,-5l-51 -12c-7,-2 -13,-4 -19,-7 -7,-2 -12,-6 -17,-10 -4,-4 -8,-10 -11,-16 -3,-6 -4,-13 -4,-22 0,-6 1,-12 3,-20 2,-7 6,-14 12,-21 5,-7 14,-12 24,-17 10,-4 23,-6 39,-6 11,0 22,1 32,4 10,3 19,7 27,13 8,6 14,14 18,22 5,9 7,20 7,31l-21 0c-1,-8 -3,-16 -6,-22 -4,-7 -8,-12 -14,-17 -6,-4 -12,-7 -20,-10 -7,-2 -15,-3 -23,-3 -7,0 -14,1 -21,2 -7,2 -13,5 -18,8 -6,4 -10,8 -13,14 -3,6 -5,13 -5,21 0,6 1,10 3,14 2,4 4,8 7,10 4,3 7,5 11,7 5,2 9,3 14,4l55 14c8,2 16,5 23,8 7,3 13,7 19,11 5,5 9,10 13,17 3,6 4,14 4,24 0,2 0,6 -1,10 0,4 -1,9 -3,14 -2,4 -5,9 -9,14 -4,5 -9,9 -15,13 -7,4 -15,8 -24,10 -10,2 -22,4 -35,4 -13,0 -26,-2 -37,-5 -12,-3 -21,-8 -30,-14 -8,-7 -14,-15 -18,-25 -5,-10 -6,-22 -6,-36l22 0c0,12 1,22 5,29z"/>
  </g>
  <g id="_2132626723616">
   <path class="fil1" d="M7672 1263c-25,-5 -149,-67 -270,-160 -121,-92 -218,-218 -217,-352 -1,-135 96,-261 217,-353 121,-93 245,-155 270,-160 28,-3 -33,40 -138,131 -101,90 -241,223 -238,382 -3,158 137,291 238,381 105,91 166,134 138,131z"/>
   <path class="fil1" d="M7977 1316c-27,-5 -134,-52 -283,-152 -145,-99 -319,-247 -316,-413 -3,-167 171,-315 316,-414 149,-100 256,-147 283,-151 28,-1 -20,28 -125,123 -98,93 -254,249 -252,442 -2,192 154,348 252,441 105,95 153,124 125,124z"/>
   <path class="fil1" d="M8282 1353c-27,-5 -111,-31 -246,-133 -128,-98 -310,-268 -308,-469 -2,-202 180,-371 308,-470 135,-102 219,-128 246,-133 27,3 1,14 -71,111 -67,92 -183,267 -182,492 -1,224 115,399 182,491 72,97 98,109 71,111z"/>
   <path class="fil1" d="M9581 460l0 0c0,86 -70,157 -157,157l-944 0c-53,0 -98,-41 -102,-93 -2,-31 10,-58 29,-78 18,-17 43,-29 71,-29l549 0c25,0 48,-10 64,-26 16,-16 26,-37 27,-60 2,-53 46,-96 99,-96l114 0c21,0 42,8 58,22l159 133c21,17 33,43 33,70zm3 -227c-118,-118 -281,-191 -460,-191l-282 0c-360,0 -657,290 -657,651 0,179 73,341 191,459 117,118 280,190 459,190l289 0c260,0 485,-153 589,-374 0,0 0,-1 -1,-1l-780 0c-25,0 -48,11 -64,27 -15,15 -25,36 -27,60 -2,53 -46,95 -99,95l-114 0c-21,0 -42,-7 -58,-21l-159 -133c-21,-18 -33,-43 -33,-70l0 -57c0,-55 45,-100 100,-100l852 0c2,0 4,0 6,0l417 0c5,0 11,0 16,1 0,0 0,0 0,0 3,-25 5,-51 5,-77 0,-179 -73,-342 -190,-459z"/>
   <polygon class="fil1" points="10396,389 10793,389 10770,568 10373,568 10359,669 10784,669 10757,879 10095,879 10194,99 10850,99 10825,297 10407,297 "/>
   <polygon class="fil1" points="10799,879 10898,99 11137,99 11071,618 11497,618 11463,879 "/>
   <polygon class="fil1" points="11802,389 12199,389 12176,568 11779,568 11766,669 12190,669 12163,879 11501,879 11601,99 12257,99 12231,297 11814,297 "/>
   <polygon class="fil1" points="12613,521 12619,521 12796,99 13081,99 12716,879 12439,879 12270,99 12540,99 "/>
   <polygon class="fil1" points="13296,389 13693,389 13669,568 13272,568 13259,669 13683,669 13656,879 12994,879 13094,99 13750,99 13725,297 13307,297 "/>
   <polygon class="fil1" points="14548,99 14449,879 14192,879 13981,472 13975,472 13923,879 13699,879 13798,99 14058,99 14266,500 14272,500 14323,99 "/>
   <polygon class="fil1" points="10250,1211 10231,1351 10174,1351 10192,1212 10094,962 10160,962 10225,1137 10339,962 10411,962 "/>
   <polygon class="fil1" points="10480,1117 10670,1117 10662,1182 10471,1182 10458,1283 10660,1283 10651,1351 10392,1351 10442,962 10697,962 10687,1030 10491,1030 "/>
   <polygon class="fil1" points="10700,1351 10750,962 10808,962 10767,1279 10967,1279 10958,1351 "/>
   <polygon class="fil1" points="11004,1351 11055,962 11112,962 11071,1279 11272,1279 11263,1351 "/>
   <path class="fil1" d="M11486 1023c-22,0 -41,6 -58,18 -17,12 -31,29 -41,51 -7,14 -12,30 -16,47 -4,17 -6,34 -6,51 0,34 8,58 23,75 14,17 36,25 63,25 22,0 41,-6 58,-18 17,-12 30,-29 41,-51 7,-14 12,-30 16,-47 3,-17 5,-34 5,-51 0,-33 -7,-58 -22,-75 -15,-17 -36,-25 -63,-25zm-42 339c-44,0 -79,-13 -105,-41 -25,-27 -38,-67 -38,-120 0,-28 4,-56 10,-83 6,-27 15,-52 27,-74 17,-29 38,-52 63,-69 26,-16 56,-24 91,-24 45,0 80,13 106,41 25,27 37,67 37,120 0,28 -3,56 -9,83 -6,27 -15,52 -27,74 -17,29 -38,52 -63,69 -26,16 -56,24 -92,24z"/>
   <polygon class="fil1" points="11886,1351 11863,1068 11861,1068 11768,1351 11700,1351 11664,962 11723,962 11746,1249 11748,1249 11841,962 11905,962 11929,1249 11931,1249 12023,962 12087,962 11954,1351 "/>
   <polygon class="fil1" points="13854,1151 13836,1191 13864,1191 13856,1151 "/>
   <path class="fil1" d="M14090 1182l-34 0 -3 20 34 0c4,0 6,-2 8,-5 1,-2 2,-4 2,-7 0,-5 -3,-8 -7,-8z"/>
   <path class="fil1" d="M14095 1125l-32 0 -2 19 31 0c4,0 7,-2 8,-5 1,-1 2,-4 2,-6 0,-5 -2,-8 -7,-8z"/>
   <path class="fil1" d="M14264 1248l-77 0 11 -82 77 0 -11 82zm-82 -114c-1,4 -4,8 -7,12 -2,2 -4,3 -7,4 -2,2 -5,3 -8,3l0 3c6,2 11,6 14,11 4,5 6,13 6,22 0,17 -3,29 -8,39 -3,6 -8,11 -15,15 -7,4 -16,5 -27,5l-159 0 23 -173 152 0c14,0 23,4 29,11 7,7 10,17 10,29 0,7 -1,14 -3,19zm-305 114l-2 -11 -60 0 -5 11 -84 0 84 -173 106 0 40 173 -79 0zm-168 0l-179 0 22 -173 76 0 -12 96 103 0 -10 77zm-1461 -278l-34 106 1259 0 -5 31 -1264 0 -12 39 1270 0 -5 32 -1275 0 -12 38 1281 0 -5 32 -1286 0 -37 119 2265 -3 51 -396 -2191 2z"/>
  </g>
  <polyline class="fil0 str1" points="-1708,2670 -1939,2670 -1939,2439 "/>
  <line class="fil0 str0" x1="-520" y1="1969" x2="-520" y2= "-619" />
  <polyline class="fil0 str1" points="-1939,-854 -1939,-1085 -1708,-1085 "/>
  <line class="fil0 str0" x1="-1258" y1="-1128" x2="22450" y2= "-1128" />
  <g id="_2132877919664">
   <path class="fil1" d="M17584 882c-19,0 -40,6 -64,16 -11,5 -32,17 -62,34l-22 60 -19 53 -20 57c9,5 22,11 39,19 12,4 27,6 45,6 33,0 65,-11 94,-35 30,-23 51,-52 64,-87 13,-34 14,-63 6,-86 -10,-24 -30,-37 -61,-37zm-127 311c-35,0 -64,-7 -87,-21 -12,11 -23,17 -33,17 -9,0 -15,-4 -19,-10 -4,-6 -4,-13 -1,-22 2,-6 6,-15 11,-27 5,-11 8,-20 10,-26 9,-24 22,-61 38,-109 16,-49 29,-85 38,-109 6,-17 18,-48 35,-95 17,-46 29,-78 35,-95 5,-14 12,-26 22,-37 13,-14 26,-21 39,-21 17,0 22,10 15,30 -1,3 -3,8 -7,14 -3,6 -5,11 -7,14l-28 75 -33 87c25,-13 48,-23 68,-30 21,-7 39,-10 54,-10 49,0 82,19 99,56 16,36 14,79 -5,131 -19,52 -51,97 -98,133 -47,36 -96,55 -146,55zm-490 -311c-28,0 -55,10 -82,32 -26,22 -52,54 -77,97l124 -50c49,-20 84,-37 107,-52 -13,-18 -37,-27 -72,-27zm-105 311c-52,0 -89,-12 -111,-38 -25,-29 -28,-69 -9,-120 22,-59 54,-109 98,-149 47,-44 97,-66 149,-66 38,0 67,6 87,19 23,16 29,40 17,73 -8,23 -29,43 -61,62 -15,8 -44,21 -87,38l-154 62c6,19 17,34 32,43 16,10 36,15 62,15 15,0 35,-3 58,-9 30,-8 51,-18 63,-30 13,-12 23,-18 32,-18 8,0 14,3 18,9 4,6 5,13 2,21 -9,25 -38,47 -85,65 -41,16 -78,23 -111,23zm-296 -309c-39,0 -72,12 -99,35 -28,22 -50,56 -66,102 -11,29 -10,55 3,76 14,21 34,32 62,32 20,0 37,-4 53,-11 9,-4 25,-13 49,-28 4,-3 9,-7 13,-11l21 -59 15 -40 15 -40c-2,-19 -8,-33 -19,-42 -11,-9 -27,-14 -47,-14zm155 -9c-15,34 -28,67 -41,101 -27,76 -45,134 -52,172 0,4 -1,6 -2,8 -3,9 -9,17 -18,23 -8,6 -17,9 -25,9 -14,0 -21,-10 -20,-31 -21,12 -41,21 -61,27 -20,6 -40,9 -59,9 -47,0 -81,-15 -100,-47 -21,-32 -22,-73 -3,-124 22,-61 56,-110 102,-146 46,-37 94,-55 146,-55 27,0 46,4 57,12l24 24c38,-97 65,-161 82,-195 10,-20 24,-30 42,-30 20,0 27,11 19,33 -12,32 -42,102 -91,210zm-509 87c3,-10 8,-21 13,-32 6,-12 12,-24 20,-37 -7,-4 -13,-8 -19,-10 -5,-2 -10,-3 -13,-3 -36,0 -72,15 -108,44 -36,29 -61,62 -75,100 -14,37 -18,66 -11,84 6,19 23,29 49,29 22,0 42,-4 61,-12 10,-5 24,-13 44,-27 15,-60 28,-106 39,-136zm-16 238c-4,0 -10,-5 -18,-15 -7,-9 -12,-17 -14,-25 -26,12 -49,21 -68,27 -19,6 -34,9 -45,9 -53,0 -87,-15 -100,-45 -13,-28 -9,-72 13,-130 20,-56 56,-103 108,-142 53,-40 106,-59 158,-59 20,0 41,5 62,15 26,13 36,28 30,47 -3,6 -7,11 -13,16 -6,9 -13,23 -21,43 -9,20 -19,45 -30,76 -11,29 -17,51 -19,68 -2,10 -2,30 -1,60 0,4 1,10 2,18l0 6c-4,9 -10,17 -18,23 -9,6 -17,8 -26,8zm-380 7c-19,0 -27,-10 -22,-30 5,-25 13,-61 26,-106l27 -107c4,-15 5,-31 5,-46 0,-20 -5,-31 -14,-31 -8,0 -26,7 -55,22 -26,13 -45,24 -54,32 -8,21 -16,42 -22,64l-23 91c-9,36 -18,66 -26,90 -4,10 -10,18 -19,24 -9,7 -18,10 -28,10 -9,0 -16,-3 -20,-10 -4,-6 -4,-14 -1,-24 10,-28 23,-69 37,-123 14,-54 26,-95 36,-122 9,-24 13,-43 11,-57 -19,8 -40,20 -62,36l-57 45c-6,6 -14,13 -26,22 -5,14 -13,34 -26,60 -12,27 -20,47 -25,60 -3,7 -5,16 -7,29 -3,12 -5,21 -7,26 -3,10 -10,18 -19,24 -9,6 -19,10 -28,10 -26,0 -28,-30 -7,-89 5,-13 14,-34 27,-61 12,-27 21,-48 26,-61 4,-13 10,-31 16,-55 7,-24 13,-42 17,-55 19,-52 40,-78 63,-78 9,0 16,4 21,12 4,8 5,16 1,25 -1,5 -4,12 -9,21 -4,9 -7,16 -9,21l-13 36c21,-25 47,-47 77,-67 30,-20 54,-29 70,-29 36,0 54,18 55,53 18,-17 38,-29 58,-37 21,-9 42,-13 65,-13 38,0 56,21 55,62 0,8 -7,40 -21,96 -8,40 -23,105 -47,197 -3,9 -9,17 -18,23 -9,7 -18,10 -28,10z"/>
   <path class="fil1" d="M20130 493c-13,0 -20,-5 -22,-13 -1,-6 0,-18 5,-37 -19,4 -48,12 -88,24 -42,14 -67,32 -75,54 6,2 12,4 18,5 49,10 84,23 103,39 29,24 35,59 18,104 -13,38 -40,66 -79,85 -32,15 -69,23 -110,23 -30,0 -57,-5 -80,-15 -31,-13 -42,-31 -34,-54 4,-9 10,-17 20,-24 10,-7 19,-10 28,-10 7,0 15,5 22,16 3,6 14,10 32,13 14,3 27,5 37,5 19,0 37,-3 53,-7 24,-7 39,-17 44,-32 11,-31 -3,-52 -42,-63l-33 -8c-28,-6 -47,-14 -57,-23 -14,-13 -16,-32 -6,-58 17,-48 52,-82 105,-102 16,-6 40,-14 74,-22 33,-9 57,-16 72,-22 11,-4 22,-6 33,-6 10,0 17,3 21,9 4,7 4,15 0,25 -2,7 -4,17 -6,30 -2,13 -4,22 -7,29 -4,10 -10,19 -18,25 -9,6 -18,10 -28,10z"/>
   <path class="fil1" d="M19743 601c-6,14 -13,34 -22,61 -9,28 -16,48 -21,62 -4,10 -10,18 -19,24 -8,7 -17,10 -27,10 -10,0 -17,-3 -21,-10 -4,-6 -4,-14 -1,-24 5,-14 12,-34 22,-62 9,-27 16,-47 21,-61 8,-22 19,-48 33,-81 13,-32 24,-58 32,-80 4,-10 10,-18 19,-25 8,-6 18,-9 27,-9 10,0 17,3 21,9 4,7 4,15 0,25 -7,22 -18,48 -32,80 -14,33 -25,59 -32,81z"/>
   <path class="fil1" d="M19828 323c-11,0 -19,-4 -24,-12 -5,-8 -6,-17 -2,-28 4,-11 12,-20 23,-28 10,-8 21,-12 32,-12 11,0 19,4 24,12 5,8 6,17 2,28 -4,11 -11,20 -22,28 -11,8 -22,12 -33,12z"/>
   <path class="fil1" d="M19269 460c-28,0 -55,11 -82,33 -26,21 -52,54 -77,97l124 -50c49,-20 85,-37 108,-52 -13,-19 -38,-28 -73,-28zm-105 312c-51,0 -89,-13 -111,-39 -25,-28 -28,-68 -9,-119 22,-60 54,-110 98,-150 47,-44 97,-66 150,-66 37,0 66,7 86,20 23,15 29,40 17,72 -8,23 -29,44 -61,63 -15,8 -44,21 -87,38l-154 62c6,19 17,33 32,43 16,10 36,14 62,14 15,0 35,-3 58,-9 30,-7 51,-17 63,-29 13,-12 23,-19 32,-19 8,0 14,3 18,9 4,7 5,14 2,22 -9,25 -38,47 -85,65 -41,15 -78,23 -111,23zm-148 -308c-5,0 -11,0 -17,0 -6,-1 -12,-1 -17,-1 -5,0 -21,2 -48,5l-68 203 -6 15 -6 17c-17,50 -38,75 -63,75 -9,0 -16,-2 -20,-8 -5,-6 -6,-14 -2,-23 3,-8 8,-21 15,-39 7,-17 12,-30 15,-39l67 -200c-17,-1 -41,-3 -74,-6 -20,-3 -26,-14 -18,-34 3,-10 9,-18 18,-25 9,-7 18,-10 27,-10l71 6c4,-12 9,-27 15,-47 6,-19 11,-33 14,-42 3,-10 10,-18 19,-24 8,-6 18,-9 27,-9 21,0 26,17 17,50 -2,9 -5,19 -10,31l-8 20 -8 21c30,-4 47,-6 51,-6 24,0 39,2 46,4 12,4 15,15 9,32 -4,10 -10,18 -19,25 -8,6 -17,9 -27,9zm-396 137c-5,14 -12,34 -21,61 -10,28 -17,48 -22,62 -3,10 -9,18 -18,24 -8,7 -18,10 -28,10 -10,0 -17,-3 -21,-10 -4,-6 -4,-14 0,-24 5,-14 12,-34 21,-62 10,-27 17,-47 22,-61 8,-22 18,-48 32,-81 14,-32 25,-58 33,-80 3,-10 10,-18 18,-25 9,-6 18,-9 28,-9 10,0 17,3 21,9 4,7 4,15 0,25 -8,22 -19,48 -32,80 -14,33 -25,59 -33,81zm86 -278c-11,0 -19,-4 -24,-12 -6,-8 -6,-17 -2,-28 4,-11 11,-20 22,-28 11,-8 22,-12 33,-12 11,0 19,4 24,12 5,8 6,17 2,28 -4,11 -12,20 -22,28 -11,8 -22,12 -33,12zm-237 170c-13,0 -20,-5 -22,-13 -1,-6 0,-18 5,-37 -19,4 -48,12 -88,24 -42,14 -68,32 -76,54 6,2 13,4 19,5 49,10 83,23 103,39 29,24 35,59 18,104 -14,38 -40,66 -79,85 -33,15 -69,23 -110,23 -30,0 -57,-5 -80,-15 -31,-13 -42,-31 -34,-54 4,-9 10,-17 20,-24 10,-7 19,-10 28,-10 7,0 14,5 22,16 3,6 14,10 32,13 14,3 27,5 37,5 19,0 37,-3 53,-7 24,-7 38,-17 44,-32 11,-31 -3,-52 -43,-63l-32 -8c-29,-6 -47,-14 -57,-23 -14,-13 -16,-32 -7,-58 18,-48 53,-82 105,-102 16,-6 41,-14 74,-22 34,-9 58,-16 73,-22 11,-4 22,-6 33,-6 10,0 17,3 21,9 4,7 4,15 0,25 -3,7 -5,17 -7,30 -1,13 -4,22 -6,29 -4,10 -10,19 -18,25 -9,6 -18,10 -28,10zm-464 -32c-19,0 -40,5 -64,16 -11,5 -32,16 -61,34l-23 59 -19 54 -20 56c9,5 22,12 39,20 13,4 28,6 45,6 33,0 65,-12 94,-35 30,-23 51,-52 64,-87 13,-34 14,-63 6,-86 -10,-25 -30,-37 -61,-37zm-127 310c-35,0 -64,-6 -87,-20 -12,11 -23,16 -33,16 -9,0 -15,-3 -19,-9 -4,-6 -4,-14 -1,-23 2,-6 6,-14 11,-26 5,-12 8,-21 10,-27 9,-24 22,-60 38,-109 17,-48 29,-84 38,-108 6,-17 18,-49 35,-95 17,-47 29,-78 35,-95 5,-14 12,-26 22,-37 13,-14 26,-21 39,-21 17,0 22,10 15,29 -1,4 -3,8 -7,14 -3,7 -5,11 -6,14l-29 75 -32 88c24,-14 47,-24 67,-31 21,-6 39,-10 54,-10 49,0 82,19 99,57 16,36 14,79 -4,131 -19,52 -52,96 -99,133 -47,36 -96,54 -146,54zm-280 -311c-28,0 -55,11 -82,33 -26,21 -52,54 -77,97l124 -50c49,-20 84,-37 107,-52 -13,-19 -37,-28 -72,-28zm-105 312c-52,0 -89,-13 -111,-39 -25,-28 -28,-68 -9,-119 22,-60 54,-110 98,-150 47,-44 97,-66 149,-66 38,0 67,7 86,20 24,15 30,40 18,72 -8,23 -29,44 -61,63 -15,8 -44,21 -87,38l-154 62c6,19 17,33 32,43 16,10 36,14 62,14 15,0 35,-3 58,-9 30,-7 51,-17 63,-29 13,-12 23,-19 32,-19 8,0 14,3 18,9 4,7 5,14 2,22 -9,25 -38,47 -85,65 -41,15 -78,23 -111,23zm-112 -322c-45,75 -99,159 -162,253 -14,21 -33,42 -56,64 -12,12 -25,18 -39,18 -24,-1 -33,-32 -24,-93 3,-20 8,-47 15,-80l17 -77 -52 66 -104 141c-6,9 -13,15 -20,20 -12,13 -26,20 -41,21 -17,0 -22,-34 -13,-103 5,-35 14,-83 28,-144l11 -51c4,-21 9,-38 14,-52 3,-9 10,-17 19,-24 9,-6 18,-9 28,-9 17,0 24,9 22,28 -2,14 -6,31 -12,50l-13 51 -36 154c51,-71 107,-152 168,-244 17,-25 34,-38 53,-38 18,0 25,14 21,43 -3,27 -11,68 -22,123 -12,58 -21,103 -25,135l59 -93 112 -187c9,-14 21,-21 38,-21 9,0 16,3 21,9 5,7 5,15 2,24 0,1 -3,7 -9,16z"/>
   <path class="fil1" d="M16635 493c-12,0 -20,-5 -22,-13 -1,-6 1,-18 5,-37 -19,4 -48,12 -88,24 -42,14 -67,32 -75,54 6,2 12,4 18,5 49,10 84,23 103,39 29,24 35,59 18,104 -13,38 -40,66 -79,85 -32,15 -69,23 -110,23 -30,0 -57,-5 -80,-15 -31,-13 -42,-31 -33,-54 3,-9 10,-17 19,-24 10,-7 19,-10 29,-10 7,0 14,5 21,16 3,6 14,10 32,13 15,3 27,5 37,5 20,0 37,-3 54,-7 23,-7 38,-17 43,-32 11,-31 -3,-52 -42,-63l-33 -8c-28,-6 -47,-14 -56,-23 -14,-13 -17,-32 -7,-58 17,-48 52,-82 105,-102 16,-6 40,-14 74,-22 33,-9 57,-16 73,-22 10,-4 21,-6 32,-6 10,0 17,3 21,9 4,7 4,15 0,25 -2,7 -4,17 -6,30 -2,13 -4,22 -7,29 -3,10 -10,19 -18,25 -9,6 -18,10 -28,10z"/>
   <path class="fil1" d="M16248 601c-5,14 -12,34 -22,61 -9,28 -16,48 -21,62 -4,10 -10,18 -18,24 -9,7 -18,10 -28,10 -10,0 -17,-3 -21,-10 -4,-6 -4,-14 0,-24 5,-14 12,-34 21,-62 9,-27 16,-47 21,-61 8,-22 19,-48 33,-81 14,-32 24,-58 32,-80 4,-10 10,-18 19,-25 8,-6 18,-9 28,-9 9,0 16,3 20,9 4,7 4,15 1,25 -8,22 -19,48 -33,80 -14,33 -24,59 -32,81z"/>
   <path class="fil1" d="M16334 323c-11,0 -20,-4 -25,-12 -5,-8 -6,-17 -2,-28 4,-11 12,-20 23,-28 11,-8 22,-12 33,-12 10,0 19,4 24,12 5,8 5,17 1,28 -4,11 -11,20 -22,28 -11,8 -22,12 -32,12z"/>
   <path class="fil1" d="M15983 778c-16,0 -23,-9 -22,-26 2,-19 7,-46 15,-80 8,-33 16,-61 23,-82 3,-6 6,-15 11,-27 5,-12 9,-21 11,-27 16,-43 13,-64 -9,-64 -29,0 -60,13 -93,39 -16,13 -42,39 -76,77 -32,87 -54,139 -67,155 -12,14 -24,21 -38,21 -9,0 -16,-3 -21,-9 -4,-7 -5,-14 -2,-23 1,-4 4,-9 9,-16 4,-5 11,-22 22,-50l19 -50 93 -253c12,-28 20,-47 24,-57 4,-11 7,-22 8,-33 2,-10 5,-21 9,-32 4,-10 10,-18 19,-24 9,-6 18,-10 27,-10 19,0 26,11 22,31 -4,22 -10,42 -16,60 -9,23 -19,49 -30,75 -10,24 -20,49 -29,75l-11 30c28,-25 55,-44 81,-57 26,-12 51,-18 75,-18 38,0 60,12 65,37 4,17 -1,46 -15,87l-21 66 -19 71c-7,27 -11,51 -14,71 -1,4 -2,7 -3,10 -3,9 -9,17 -18,23 -10,7 -19,10 -29,10z"/>
   <path class="fil1" d="M15710 464c-5,0 -11,0 -17,0 -6,-1 -12,-1 -17,-1 -5,0 -21,2 -48,5l-68 203 -5 15 -6 17c-18,50 -39,75 -64,75 -9,0 -16,-2 -20,-8 -5,-6 -6,-14 -2,-23 3,-8 8,-21 15,-39 7,-17 12,-30 15,-39l67 -200c-16,-1 -41,-3 -74,-6 -19,-3 -26,-14 -18,-34 3,-10 9,-18 18,-25 9,-7 18,-10 27,-10l71 6c4,-12 9,-27 15,-47 6,-19 11,-33 14,-42 4,-10 10,-18 19,-24 8,-6 18,-9 27,-9 21,0 26,17 18,50 -3,9 -6,19 -11,31l-7 20 -9 21c30,-4 47,-6 51,-6 24,0 39,2 46,4 12,4 15,15 9,32 -4,10 -10,18 -18,25 -9,6 -18,9 -28,9z"/>
   <path class="fil1" d="M18130 872l-212 257c-52,62 -94,114 -125,156l-46 67c-12,16 -26,25 -40,25 -10,0 -17,-3 -22,-10 -4,-6 -5,-14 -1,-23 8,-23 57,-89 146,-199l-37 -236 -6 -25c-2,-11 -2,-20 0,-27 4,-9 10,-17 20,-24 10,-8 19,-11 28,-11 11,0 17,4 20,12 19,54 33,132 41,232l95 -120c33,-40 63,-76 90,-105 13,-13 24,-20 36,-20 10,0 17,4 22,10 4,7 5,15 2,24 -2,5 -6,11 -11,17zm474 292c-30,12 -75,23 -134,32 -54,9 -97,14 -130,14 -23,0 -38,-4 -45,-11 -11,-10 -11,-27 -2,-53l48 -113c44,-105 90,-221 136,-348 4,-10 10,-19 19,-26 9,-6 18,-10 28,-10 10,0 17,4 21,10 4,7 4,16 0,26 -47,129 -93,246 -137,352l-24 52c-9,19 -15,36 -20,50 59,1 140,-13 242,-41 4,-2 8,-2 11,-2 10,0 17,4 21,11 3,8 3,16 0,25 -6,14 -17,25 -34,32zm430 -187c-6,17 -15,42 -26,75 -12,33 -21,57 -27,74 -2,5 -4,12 -7,23 -3,10 -6,18 -8,23 -3,10 -9,18 -18,24 -9,6 -19,9 -28,9 -18,0 -25,-10 -22,-32 -34,14 -69,22 -107,22 -29,0 -52,-7 -67,-20 -16,-15 -21,-36 -15,-64 13,-61 29,-115 46,-162 11,-31 27,-67 49,-107 10,-20 25,-30 43,-30 10,0 17,3 22,10 4,6 4,14 1,24 -4,10 -12,27 -24,50 -11,23 -19,41 -24,53 -14,38 -24,71 -32,98 -7,27 -12,49 -13,66 6,4 13,7 19,9 7,2 13,3 21,3 30,0 65,-5 102,-14l25 -70 24 -67c18,-49 35,-92 53,-128 10,-21 25,-32 45,-32 9,0 17,3 21,10 4,6 4,14 0,24l-53 129zm293 215c-12,0 -19,-6 -22,-20 -3,-23 -11,-50 -24,-82l-31 -82c-17,10 -42,25 -77,44 -15,35 -29,70 -41,103 -4,11 -10,19 -19,25 -8,7 -18,10 -27,10 -23,0 -29,-16 -18,-47 7,-19 18,-47 35,-85 16,-38 27,-66 34,-85 13,-35 28,-75 45,-119 18,-45 33,-84 45,-119 4,-10 8,-22 12,-36 4,-14 8,-26 11,-36 4,-11 10,-19 19,-25 9,-7 18,-10 28,-10 10,0 16,3 20,10 4,6 5,14 1,25 -4,10 -8,23 -12,37 -5,14 -9,27 -13,37l-42 111c-15,39 -30,79 -44,119 40,-24 79,-50 118,-78l104 -78c11,-8 20,-12 29,-12 9,0 16,4 21,11 4,7 5,15 1,25 -2,7 -9,15 -18,23 -40,32 -88,68 -143,105l38 102c18,48 24,79 19,94 -4,9 -10,17 -20,23 -10,7 -19,10 -29,10zm253 1c-52,0 -89,-12 -111,-38 -25,-29 -28,-69 -9,-120 22,-59 54,-109 98,-149 47,-44 97,-66 149,-66 38,0 67,6 87,19 23,16 29,40 17,73 -8,23 -29,43 -61,62 -15,8 -44,21 -87,38l-154 62c6,19 17,34 32,43 16,10 36,15 62,15 15,0 35,-3 58,-9 30,-8 51,-18 63,-30 13,-12 23,-18 32,-18 8,0 14,3 18,9 4,6 5,13 2,21 -9,25 -38,47 -85,65 -41,16 -78,23 -111,23zm105 -311c-28,0 -55,10 -82,32 -26,22 -52,54 -77,97l124 -50c49,-20 84,-37 107,-52 -13,-18 -37,-27 -72,-27zm485 43c-12,29 -29,43 -50,43 -20,0 -25,-11 -17,-34 2,-4 4,-12 8,-24l9 -29c-38,4 -70,14 -98,30 -26,15 -51,38 -75,68l-68 188c-8,23 -24,34 -46,34 -20,0 -26,-11 -18,-34l88 -241c3,-8 7,-19 13,-34 6,-15 10,-27 13,-34 8,-23 23,-35 43,-35 22,0 26,19 13,57 59,-42 116,-63 169,-63 19,0 30,7 34,21 4,14 1,35 -9,63 -5,12 -8,20 -9,24z"/>
  </g>
 </g>
</svg>
