<?xml version="1.0" encoding="UTF-8"?>
<!DOCTYPE svg PUBLIC "-//W3C//DTD SVG 1.1//EN" "http://www.w3.org/Graphics/SVG/1.1/DTD/svg11.dtd">
<!-- Creator: CorelDRAW X8 -->
<svg xmlns="http://www.w3.org/2000/svg" xml:space="preserve" width="420mm" height="40mm" version="1.1" style="shape-rendering:geometricPrecision; text-rendering:geometricPrecision; image-rendering:optimizeQuality; fill-rule:evenodd; clip-rule:evenodd"
viewBox="0 0 42000 4000"
 xmlns:xlink="http://www.w3.org/1999/xlink">
 <defs>
  <style type="text/css">
   <![CDATA[
    .str1 {stroke:#ffc700;stroke-width:17.64}
    .str0 {stroke:#ffc700;stroke-width:17.64;stroke-dasharray:169.320000 169.320000}
    .fil1 {fill:none}
    .fil3 {fill:none;fill-rule:nonzero}
    .fil0 {fill:#ffc700}
    .fil2 {fill:#ffc700;fill-rule:nonzero}
   ]]>
  </style>
 </defs>
 <g id="Capa_x0020_1">
  <metadata id="CorelCorpID_0Corel-Layer"/>
  <g id="_1547523272960">
   <g>
    <path class="fil0" d="M36528 1735c-83,-112 166,-224 248,-335 111,-152 173,-227 30,-398 -173,-206 -194,55 -266,163 -205,307 -114,35 -304,24 -48,-3 -199,217 -286,287 -193,155 -971,921 -946,768 49,-309 332,-442 491,-678 79,-117 195,-263 72,-398 -220,-242 -185,-1 -262,114 -158,235 -325,458 -467,706 -90,156 -120,255 -290,287 -66,13 -419,136 -437,100 -14,-30 445,-659 498,-719 34,-40 239,-307 262,-346 58,-96 -134,-323 -256,-287 -14,4 -254,476 -317,557 -127,162 -228,357 -358,522 -53,67 -122,192 -172,270 -59,91 -174,155 -151,273 76,381 299,136 491,83 97,-26 221,-67 314,-104 130,-50 191,-120 262,52 65,157 97,160 241,87 67,-34 169,-142 235,-201 123,-108 856,-824 928,-806 30,8 -143,237 -171,260 -57,46 -183,209 -199,221 -60,46 -142,162 -202,225 -91,96 -60,252 18,297 174,101 108,24 211,-110 54,-70 134,-175 196,-232 62,-57 147,-202 217,-201 120,2 135,-28 246,-74 103,-44 170,-114 239,35 75,163 -98,333 118,393 141,40 53,35 162,200 75,112 181,44 299,31 201,-22 446,-124 660,-149 81,-9 286,-70 346,-59 44,9 167,193 232,184 27,-4 52,-67 66,-42l6 11c28,47 -17,160 172,114 82,-20 160,-44 241,-63 190,-43 325,-65 513,-89 243,-32 559,-39 807,-14 70,7 229,88 247,45 76,-179 -93,-295 -195,-381 -42,-35 -380,-4 -462,-7 -39,-1 -238,45 -189,-31 24,-38 117,-112 156,-135 190,-110 832,-766 645,-993 -154,-186 -205,-111 -425,-131 -150,-14 -349,20 -497,45 -145,24 -204,-223 -331,-170 -271,113 -630,156 -923,201 -66,10 -155,54 -202,-21 -46,-74 -89,-130 -177,-69 -51,36 -214,260 -266,325 -225,284 -114,91 -319,63 -69,-10 -687,450 -799,300zm745 703c60,66 677,-112 747,-166 114,-88 232,148 274,155 21,4 109,-89 127,-114 111,-154 308,-454 383,-609 138,-287 310,-382 -91,-304 -289,57 -370,92 -672,70 -15,-1 -485,325 -84,269 90,-13 241,-15 325,-38 106,-29 40,-205 205,-14 272,314 -42,297 -244,332 -57,10 -289,18 -343,24 -160,19 -213,-83 -290,-69 -56,11 -377,420 -337,464zm2691 -1048c-69,3 -280,81 -516,32 -227,-47 -199,128 -315,343 -71,131 -101,191 -166,319 -40,79 -262,348 -124,305 163,-50 526,-333 708,-453 129,-85 206,-193 313,-287 70,-61 341,-273 100,-259zm-2691 418c-3,0 -329,116 -338,121 -157,89 -44,107 9,294 25,86 52,111 94,14 30,-69 73,-93 99,-142 28,-51 193,-287 136,-287zm3565 695c-99,22 -143,84 -94,180 63,122 82,113 202,139 250,53 34,-349 -108,-319z"/>
    <path class="fil0" d="M32943 1403c-21,-10 -33,-72 -85,-110 -24,-21 -99,-42 -129,-56 -226,-103 -350,-79 -515,-135 -49,-17 -214,-155 -287,-155 -153,0 -175,283 -247,425 -24,49 -51,104 -75,156 -39,86 -115,235 -139,325 -69,232 -144,356 -259,578 -63,128 -154,162 -54,297 57,83 172,215 244,59 93,-207 190,-439 286,-643 97,-204 202,-422 292,-626 34,-70 97,-229 169,-173 94,76 344,100 344,100 -3,66 -473,183 -528,270 -54,86 -69,228 -27,335 15,38 64,101 97,121 36,21 117,31 117,87 0,69 -84,104 -156,117 -103,21 -226,45 -302,139 -163,207 76,321 217,263 109,-45 365,-197 467,-270 615,-429 -605,-419 64,-675 90,-34 427,-218 476,-186 81,51 123,425 78,529 -69,159 -334,207 -295,429 18,93 102,159 184,145 81,-17 141,-118 186,-187 190,-277 440,-605 645,-868 91,-118 293,-304 353,-412 105,-176 -88,-425 -214,-297 -72,69 -536,896 -615,761 -75,-132 45,-505 -60,-668 -39,-55 -193,-149 -223,-110 -30,38 6,190 9,262 6,97 -9,180 -18,173z"/>
   </g>
   <g id="_2132768239088">
    <path class="fil2" d="M3905 923l-114 -159c-15,-23 -36,-34 -66,-34l-1435 0c-133,0 -239,26 -318,79 -16,10 -33,25 -53,42 -19,19 -36,41 -53,68 -18,28 -33,61 -44,97 -11,37 -17,81 -17,130l0 653c0,27 2,57 4,89 4,32 11,65 22,97 12,34 31,64 53,95 21,30 53,56 91,81 40,25 86,43 137,57 51,11 106,19 162,19l417 0c199,0 337,-55 413,-167 17,-25 30,-55 41,-85 10,-30 17,-61 23,-93 6,-30 10,-59 11,-87 2,-28 4,-53 4,-72 0,-21 -2,-45 -2,-76 -2,-20 -5,-45 -11,-70l146 0 0 0 297 0c30,0 55,-13 72,-41 13,-27 11,-51 -6,-76l-115 -159c-15,-21 -38,-32 -66,-32l-741 0c-19,-2 -38,-2 -55,-2l-486 0 0 -102c0,-46 13,-80 38,-101 9,-9 22,-15 36,-21 13,-3 26,-7 41,-9 14,-2 27,-4 38,-4 13,-2 23,-2 30,-2l1439 0c33,0 57,-13 72,-41 12,-25 10,-50 -5,-74zm-1347 662c29,0 59,2 88,6 30,4 54,15 77,36 19,13 30,32 34,53 2,21 4,44 4,68 0,27 -2,53 -6,78 -3,24 -15,45 -32,60 -19,19 -41,33 -68,36 -26,4 -49,6 -70,6l-201 0c-45,0 -77,-4 -98,-11 -19,-8 -32,-14 -40,-19 -8,-8 -13,-19 -21,-34 -5,-15 -9,-42 -9,-78l0 -201 342 0z"/>
    <path class="fil2" d="M5071 1375c40,-11 79,-17 115,-17 106,0 197,42 277,125 77,85 117,186 117,305 0,119 -42,220 -127,303 -85,83 -189,125 -312,125 -123,0 -225,-42 -307,-125 -81,-85 -123,-186 -123,-307 0,-59 11,-117 34,-180 23,-60 65,-136 125,-225l420 -629 139 86 -358 539zm74 682c75,0 140,-27 193,-82 53,-53 81,-117 81,-193 0,-75 -26,-140 -79,-193 -55,-53 -120,-79 -195,-79 -76,0 -140,26 -193,79 -53,53 -80,118 -80,193 0,76 27,140 80,193 54,55 119,82 193,82z"/>
    <path class="fil2" d="M6411 2161l-159 0 0 -1287c0,-21 8,-40 23,-55 17,-16 36,-23 57,-23l793 0 0 157 -714 0 0 382 589 0 -49 160 -540 0 0 666z"/>
    <path class="fil2" d="M7977 2172c-108,0 -206,-15 -292,-47 -85,-32 -159,-78 -217,-136 -59,-61 -106,-135 -137,-220 -32,-85 -47,-182 -47,-292 0,-106 15,-204 47,-289 31,-85 78,-159 137,-220 58,-59 132,-106 217,-136 86,-32 184,-47 292,-47 108,0 206,15 292,47 85,30 159,77 217,136 61,61 106,135 139,220 30,85 47,183 47,289 0,110 -17,207 -47,292 -33,85 -78,159 -139,220 -58,58 -132,104 -217,136 -86,32 -184,47 -292,47zm0 -1228c-174,0 -309,45 -399,136 -89,91 -135,225 -135,397 0,177 46,311 135,402 90,91 225,136 399,136 174,0 309,-45 400,-136 90,-91 136,-225 136,-402 0,-172 -46,-306 -136,-397 -91,-91 -226,-136 -400,-136z"/>
    <path class="fil2" d="M10088 2161l-204 0 -432 -536 -383 0 0 536 -159 0 0 -1284c0,-21 8,-39 25,-55 15,-15 34,-24 55,-24l572 0c55,2 108,13 157,36 49,22 93,53 129,89 36,36 66,81 87,130 21,50 32,105 32,159 0,52 -10,101 -27,146 -19,46 -43,87 -75,123 -31,36 -69,68 -110,91 -34,19 -70,34 -108,42l441 547zm-1019 -695l483 0c34,0 68,-6 99,-19 30,-13 58,-32 81,-55 25,-24 42,-51 55,-81 13,-30 21,-65 21,-99 0,-36 -8,-70 -21,-100 -13,-30 -30,-57 -55,-79 -23,-23 -49,-42 -81,-55 -31,-14 -65,-21 -99,-21l-483 0 0 509z"/>
    <path class="fil2" d="M11080 2161l-793 0c-21,0 -40,-8 -55,-23 -17,-17 -25,-36 -25,-57l0 -1207c0,-21 8,-40 25,-55 15,-16 34,-23 55,-23l793 0 0 157 -714 0 0 382 589 0 -47 160 -542 0 0 507 714 0 0 159z"/>
    <path class="fil2" d="M11741 2172c-155,0 -277,-34 -364,-100 -89,-68 -132,-163 -132,-284l0 -17 159 0 0 17c0,49 11,89 32,117 23,31 51,53 85,70 34,17 70,27 110,33 42,5 78,7 110,7 32,0 70,-2 110,-7 39,-6 77,-16 111,-33 33,-17 63,-39 86,-70 22,-28 34,-68 34,-117 0,-34 -6,-63 -17,-85 -10,-21 -29,-42 -53,-57 -29,-17 -65,-32 -110,-45 -48,-16 -106,-29 -176,-44 -57,-11 -116,-25 -171,-40 -58,-15 -109,-36 -155,-62 -45,-29 -83,-65 -112,-108 -30,-46 -43,-104 -43,-176 0,-121 43,-216 132,-284 87,-68 209,-102 364,-102 155,0 278,34 365,100 89,70 135,165 135,286l0 19 -159 0 0 -19c0,-49 -12,-87 -34,-118 -23,-28 -53,-53 -86,-68 -34,-17 -72,-28 -111,-34 -40,-6 -78,-7 -110,-7 -32,0 -68,1 -110,7 -40,6 -76,17 -110,34 -34,15 -62,40 -85,68 -21,29 -32,69 -32,118 0,34 6,62 17,85 9,23 28,42 55,59 28,17 64,32 110,45 45,15 104,28 174,44 57,11 113,24 170,39 57,16 108,36 154,63 47,28 85,64 113,108 29,45 44,104 44,174 0,121 -46,216 -135,284 -87,66 -210,100 -365,100z"/>
    <polygon class="fil2" points="12989,2161 12830,2161 12830,953 12409,953 12409,796 13407,796 13407,953 12989,953 "/>
    <path class="fil2" d="M5991 1491c0,74 -61,134 -134,134 -74,0 -133,-60 -133,-134 0,-74 59,-133 133,-133 73,0 134,59 134,133z"/>
    <path class="fil2" d="M3373 2822c-10,-14 -19,-25 -31,-34 -13,-8 -24,-16 -39,-19 -16,-6 -31,-8 -46,-8 -28,0 -53,6 -74,17 -21,10 -38,25 -49,42 -13,19 -23,40 -30,62 -6,21 -10,46 -10,68 0,25 4,48 10,70 7,23 17,42 30,61 11,17 28,32 49,44 21,11 46,15 74,15 21,0 38,-2 55,-10 15,-7 30,-17 42,-30 11,-13 20,-26 28,-44 8,-17 11,-34 13,-54l42 0c-4,26 -10,51 -19,72 -9,22 -23,39 -38,54 -15,16 -32,27 -53,34 -21,8 -45,14 -70,14 -34,0 -62,-8 -89,-19 -25,-13 -47,-29 -64,-49 -17,-21 -29,-46 -38,-72 -8,-27 -12,-55 -12,-86 0,-30 4,-58 12,-85 9,-26 21,-51 38,-72 17,-21 39,-36 64,-49 27,-11 55,-19 89,-19 21,0 42,4 61,10 19,5 38,15 53,26 15,13 28,29 39,46 12,17 17,36 21,58l-41 0c-4,-17 -10,-30 -17,-43z"/>
    <path class="fil2" d="M3647 3020c8,23 17,42 30,61 14,17 31,32 50,44 20,9 45,15 73,15 29,0 53,-6 74,-15 21,-12 38,-27 51,-44 12,-19 23,-38 29,-61 5,-22 9,-45 9,-70 0,-22 -4,-47 -9,-68 -6,-22 -17,-43 -29,-62 -13,-17 -30,-32 -51,-42 -21,-11 -45,-17 -74,-17 -28,0 -53,6 -73,17 -19,10 -36,25 -50,42 -13,19 -22,40 -30,62 -6,21 -9,46 -9,68 0,25 3,48 9,70zm-36 -155c8,-26 21,-51 38,-72 17,-21 38,-36 62,-49 27,-11 55,-19 89,-19 35,0 65,8 89,19 27,13 48,28 65,49 17,21 28,46 38,72 7,27 13,55 13,85 0,31 -6,59 -13,86 -10,26 -21,51 -38,72 -17,20 -38,36 -65,49 -24,11 -54,19 -89,19 -34,0 -62,-8 -89,-19 -24,-13 -45,-29 -62,-49 -17,-21 -30,-46 -38,-72 -9,-27 -13,-55 -13,-86 0,-30 4,-58 13,-85z"/>
    <polygon class="fil2" points="4230,2735 4230,3132 4473,3132 4473,3166 4189,3166 4189,2735 "/>
    <polygon class="fil2" points="4675,2735 4675,3132 4917,3132 4917,3166 4633,3166 4633,2735 "/>
    <polygon class="fil2" points="5378,2735 5378,2771 5120,2771 5120,2926 5361,2926 5361,2962 5120,2962 5120,3132 5379,3132 5379,3166 5078,3166 5078,2735 "/>
    <path class="fil2" d="M5857 2822c-10,-14 -19,-25 -31,-34 -13,-8 -24,-16 -39,-19 -16,-6 -31,-8 -46,-8 -28,0 -53,6 -74,17 -21,10 -36,25 -49,42 -13,19 -23,40 -30,62 -6,21 -10,46 -10,68 0,25 4,48 10,70 7,23 17,42 30,61 13,17 28,32 49,44 21,11 46,15 74,15 21,0 38,-2 55,-10 15,-7 30,-17 42,-30 11,-13 20,-26 28,-44 8,-17 11,-34 13,-54l42 0c-4,26 -10,51 -19,72 -9,22 -23,39 -38,54 -15,16 -32,27 -53,34 -21,8 -43,14 -70,14 -34,0 -62,-8 -89,-19 -25,-13 -47,-29 -64,-49 -15,-21 -29,-46 -38,-72 -8,-27 -12,-55 -12,-86 0,-30 4,-58 12,-85 9,-26 23,-51 38,-72 17,-21 39,-36 64,-49 27,-11 55,-19 89,-19 21,0 42,4 61,10 19,5 38,15 53,26 15,13 28,29 39,46 12,17 17,36 21,58l-41 0c-4,-17 -10,-30 -17,-43z"/>
    <polygon class="fil2" points="6400,2735 6400,2771 6250,2771 6250,3166 6209,3166 6209,2771 6059,2771 6059,2735 "/>
    <polygon class="fil2" points="6606,3166 6565,3166 6565,2735 6606,2735 "/>
    <path class="fil2" d="M6998 3132c15,0 31,-2 44,-4 13,-3 26,-7 36,-15 11,-7 19,-15 24,-26 8,-13 10,-27 10,-44 0,-28 -10,-49 -29,-62 -20,-15 -47,-21 -85,-21l-140 0 0 172 140 0zm0 -208c17,0 31,-2 44,-6 11,-4 22,-9 30,-15 8,-7 13,-15 17,-23 6,-9 8,-19 8,-28 0,-55 -34,-81 -99,-81l-140 0 0 153 140 0zm0 -189c19,0 36,2 53,5 17,4 31,10 44,17 13,10 22,19 30,33 8,15 11,32 11,51 0,11 -1,22 -5,34 -4,9 -8,19 -15,28 -6,8 -14,15 -23,21 -10,8 -19,11 -30,13l0 2c26,4 49,15 66,34 17,19 24,42 24,70 0,8 0,15 -1,25 -2,7 -4,17 -8,26 -4,8 -9,17 -15,27 -8,9 -17,17 -29,23 -11,7 -24,13 -41,17 -17,3 -38,5 -61,5l-182 0 0 -431 182 0z"/>
    <polygon class="fil2" points="7381,2735 7381,3132 7623,3132 7623,3166 7341,3166 7341,2735 "/>
    <polygon class="fil2" points="8083,2735 8083,2771 7826,2771 7826,2926 8066,2926 8066,2962 7826,2962 7826,3132 8087,3132 8087,3166 7786,3166 7786,2735 "/>
    <path class="fil2" d="M8784 2998l-84 -222 -87 222 171 0zm-59 -263l168 431 -43 0 -53 -134 -195 0 -53 134 -44 0 174 -431 46 0z"/>
    <path class="fil2" d="M9249 2939c12,0 25,-2 36,-6 12,-3 21,-7 29,-15 9,-7 15,-17 21,-26 5,-12 7,-23 7,-36 0,-27 -7,-48 -23,-63 -15,-15 -39,-22 -70,-22l-153 0 0 168 153 0zm2 -204c19,0 36,2 51,7 15,4 31,12 42,19 11,10 21,21 28,36 8,15 12,30 12,51 0,27 -8,51 -23,70 -13,21 -34,34 -62,40l0 0c15,2 26,6 36,11 9,6 17,14 22,21 6,10 10,19 12,30 3,12 5,23 5,36 0,8 2,16 2,27 0,9 0,21 2,30 2,12 4,21 6,31 4,9 5,17 11,22l-45 0c-4,-4 -6,-9 -6,-15 -2,-6 -4,-11 -4,-17 0,-7 0,-13 -2,-19 0,-6 0,-11 0,-15 -2,-15 -2,-30 -3,-45 -2,-16 -6,-29 -12,-42 -6,-11 -15,-21 -26,-28 -12,-8 -27,-10 -46,-10l-155 0 0 191 -42 0 0 -431 197 0z"/>
    <polygon class="fil2" points="9878,2735 9878,2771 9726,2771 9726,3166 9687,3166 9687,2771 9535,2771 9535,2735 "/>
    <polygon class="fil2" points="10622,2735 10622,2771 10472,2771 10472,3166 10431,3166 10431,2771 10281,2771 10281,2735 "/>
    <path class="fil2" d="M10811 3020c6,23 17,42 29,61 13,17 30,32 51,44 21,9 45,15 74,15 28,0 53,-6 73,-15 21,-12 36,-27 50,-44 13,-19 22,-38 30,-61 6,-22 9,-45 9,-70 0,-22 -3,-47 -9,-68 -8,-22 -17,-43 -30,-62 -14,-17 -29,-32 -50,-42 -20,-11 -45,-17 -73,-17 -29,0 -53,6 -74,17 -21,10 -38,25 -51,42 -12,19 -23,40 -29,62 -5,21 -9,46 -9,68 0,25 4,48 9,70zm-38 -155c10,-26 21,-51 38,-72 17,-21 38,-36 65,-49 24,-11 55,-19 89,-19 34,0 64,8 89,19 24,13 45,28 62,49 17,21 30,46 38,72 9,27 13,55 13,85 0,31 -4,59 -13,86 -8,26 -21,51 -38,72 -17,20 -38,36 -62,49 -25,11 -55,19 -89,19 -34,0 -65,-8 -89,-19 -27,-13 -48,-29 -65,-49 -17,-21 -28,-46 -38,-72 -7,-27 -13,-55 -13,-86 0,-30 6,-58 13,-85z"/>
    <polygon class="fil2" points="11304,2735 11351,2735 11495,2954 11635,2735 11684,2735 11514,2988 11514,3166 11472,3166 11472,2988 "/>
    <path class="fil2" d="M11872 3079c7,15 17,29 30,36 13,10 28,15 45,19 17,4 36,6 55,6 12,0 25,0 38,-4 13,-4 25,-8 36,-15 11,-8 21,-17 28,-29 10,-11 14,-24 14,-39 0,-12 -4,-23 -10,-31 -5,-9 -11,-17 -21,-22 -7,-6 -19,-12 -28,-15 -11,-4 -21,-8 -30,-10l-97 -23c-13,-3 -24,-7 -36,-13 -13,-4 -23,-11 -32,-19 -8,-7 -15,-19 -21,-30 -6,-12 -7,-25 -7,-42 0,-11 1,-23 5,-38 4,-13 12,-26 23,-39 9,-14 26,-23 45,-33 19,-7 44,-11 74,-11 21,0 42,2 61,8 19,5 36,13 51,24 15,12 26,27 34,42 9,17 13,38 13,59l-39 0c-2,-16 -6,-31 -12,-42 -7,-13 -15,-23 -26,-32 -12,-8 -23,-14 -38,-19 -13,-4 -29,-6 -44,-6 -13,0 -26,2 -40,4 -13,4 -24,9 -34,15 -11,8 -19,15 -24,27 -6,11 -10,24 -10,39 0,12 2,19 6,27 4,7 8,15 13,19 8,5 14,9 21,13 10,4 17,6 27,8l104 26c15,4 30,10 43,15 14,6 25,13 36,21 10,10 17,19 25,32 6,12 7,27 7,46 0,3 0,11 -1,19 0,7 -2,17 -6,26 -4,8 -10,17 -17,27 -8,9 -17,17 -29,24 -13,8 -28,15 -45,19 -19,4 -42,8 -66,8 -25,0 -50,-4 -70,-10 -23,-5 -40,-15 -57,-26 -15,-13 -27,-29 -34,-48 -10,-18 -12,-41 -12,-68l42 0c0,23 2,42 10,55z"/>
   </g>
   <g id="_2132626723616">
    <path class="fil2" d="M16109 2932c-48,-10 -282,-127 -511,-303 -230,-175 -413,-413 -411,-667 -2,-255 181,-494 411,-668 229,-176 463,-294 511,-303 53,-6 -63,76 -262,248 -191,170 -456,422 -450,723 -6,299 259,551 450,721 199,173 315,254 262,249z"/>
    <path class="fil2" d="M16686 3032c-51,-10 -254,-99 -536,-288 -274,-187 -604,-468 -598,-782 -6,-316 324,-596 598,-784 282,-189 485,-278 536,-286 53,-1 -38,53 -237,233 -185,176 -480,472 -477,837 -3,364 292,659 477,835 199,180 290,235 237,235z"/>
    <path class="fil2" d="M17264 3102c-52,-10 -211,-59 -466,-252 -242,-185 -587,-507 -583,-888 -4,-382 341,-702 583,-890 255,-193 414,-242 466,-252 51,6 1,27 -135,211 -127,174 -346,505 -344,931 -2,424 217,756 344,930 136,183 186,206 135,210z"/>
    <path class="fil2" d="M19723 1411l0 0c0,163 -133,297 -297,297l-1788 0c-100,0 -185,-77 -193,-176 -3,-58 19,-109 55,-147 34,-32 82,-55 135,-55l1039 0c47,0 91,-19 121,-49 31,-31 49,-70 51,-114 4,-100 87,-182 188,-182l216 0c39,0 79,15 109,42l302 252c39,32 62,81 62,132zm6 -430c-224,-223 -532,-361 -871,-361l-534 0c-682,0 -1244,549 -1244,1232 0,339 138,646 362,869 221,224 530,360 869,360l547 0c492,0 918,-290 1115,-708 0,0 0,-2 -2,-2l-1477 0c-47,0 -91,21 -121,51 -28,29 -47,68 -51,114 -4,100 -87,180 -187,180l-216 0c-40,0 -80,-14 -110,-40l-301 -252c-40,-34 -63,-81 -63,-132l0 -108c0,-104 86,-190 190,-190l1613 0c4,0 7,0 11,0l790 0c9,0 20,0 30,2 0,0 0,0 0,0 6,-47 9,-96 9,-146 0,-338 -138,-647 -359,-869z"/>
    <polygon class="fil2" points="21266,1277 22018,1277 21974,1616 21222,1616 21196,1807 22001,1807 21949,2204 20696,2204 20884,728 22126,728 22078,1103 21287,1103 "/>
    <polygon class="fil2" points="22029,2204 22216,728 22669,728 22544,1710 23351,1710 23286,2204 "/>
    <polygon class="fil2" points="23928,1277 24680,1277 24636,1616 23884,1616 23860,1807 24663,1807 24611,2204 23358,2204 23547,728 24789,728 24740,1103 23951,1103 "/>
    <polygon class="fil2" points="25463,1527 25475,1527 25810,728 26349,728 25658,2204 25134,2204 24814,728 25325,728 "/>
    <polygon class="fil2" points="26757,1277 27508,1277 27463,1616 26711,1616 26686,1807 27489,1807 27438,2204 26185,2204 26374,728 27616,728 27569,1103 26777,1103 "/>
    <polygon class="fil2" points="29127,728 28939,2204 28453,2204 28053,1434 28042,1434 27944,2204 27520,2204 27707,728 28199,728 28593,1487 28604,1487 28701,728 "/>
    <polygon class="fil2" points="20990,2833 20954,3098 20846,3098 20880,2835 20694,2362 20819,2362 20942,2693 21158,2362 21294,2362 "/>
    <polygon class="fil2" points="21425,2655 21785,2655 21770,2778 21408,2778 21383,2969 21766,2969 21749,3098 21258,3098 21353,2362 21836,2362 21817,2490 21446,2490 "/>
    <polygon class="fil2" points="21842,3098 21936,2362 22046,2362 21968,2962 22347,2962 22330,3098 "/>
    <polygon class="fil2" points="22417,3098 22514,2362 22622,2362 22544,2962 22925,2962 22907,3098 "/>
    <path class="fil2" d="M23330 2477c-42,0 -78,11 -110,34 -32,23 -59,55 -78,97 -13,26 -22,57 -30,89 -8,32 -11,64 -11,96 0,65 15,110 43,142 27,32 68,48 119,48 42,0 78,-12 110,-34 32,-23 57,-55 78,-97 13,-27 23,-57 30,-89 6,-32 10,-64 10,-97 0,-62 -14,-109 -42,-142 -28,-32 -68,-47 -119,-47zm-80 642c-83,0 -149,-25 -199,-78 -47,-51 -72,-127 -72,-227 0,-53 8,-106 19,-157 12,-51 29,-98 51,-140 33,-55 72,-99 120,-131 49,-30 106,-45 172,-45 85,0 152,24 201,77 47,52 70,127 70,228 0,53 -6,106 -17,157 -12,51 -29,98 -51,140 -33,55 -72,98 -120,131 -49,30 -106,45 -174,45z"/>
    <polygon class="fil2" points="24087,3098 24043,2562 24040,2562 23864,3098 23735,3098 23667,2362 23778,2362 23822,2905 23826,2905 24002,2362 24123,2362 24168,2905 24172,2905 24346,2362 24468,2362 24216,3098 "/>
    <polygon class="fil2" points="27813,2719 27779,2795 27832,2795 27817,2719 "/>
    <path class="fil2" d="M28260 2778l-65 0 -5 38 64 0c8,0 11,-4 15,-9 2,-4 4,-8 4,-14 0,-9 -6,-15 -13,-15z"/>
    <path class="fil2" d="M28269 2670l-60 0 -4 36 59 0c7,0 13,-4 15,-9 2,-2 4,-8 4,-12 0,-9 -4,-15 -14,-15z"/>
    <path class="fil2" d="M28589 2903l-146 0 21 -155 146 0 -21 155zm-155 -216c-2,8 -8,15 -13,23 -4,4 -8,6 -14,8 -3,3 -9,5 -15,5l0 6c12,4 21,11 27,21 7,9 11,24 11,41 0,33 -5,55 -15,74 -6,12 -15,21 -28,29 -14,7 -31,9 -51,9l-301 0 43 -327 288 0c26,0 43,7 55,20 13,14 19,33 19,55 0,14 -2,27 -6,36zm-577 216l-4 -21 -114 0 -9 21 -159 0 159 -327 200 0 76 327 -149 0zm-319 0l-338 0 41 -327 144 0 -23 181 195 0 -19 146zm-2766 -526l-64 200 2384 0 -10 59 -2393 0 -23 74 2405 0 -10 61 -2414 0 -22 72 2425 0 -9 60 -2435 0 -70 225 4288 -5 97 -750 -4149 4z"/>
   </g>
   <polyline class="fil3 str1" points="-1650,5595 -2088,5595 -2088,5158 "/>
   <polyline class="fil3 str1" points="-2088,-1077 -2088,-1514 -1650,-1514 "/>
  </g>
 </g>
</svg>
