<?xml version="1.0" encoding="UTF-8"?>
<!DOCTYPE svg PUBLIC "-//W3C//DTD SVG 1.1//EN" "http://www.w3.org/Graphics/SVG/1.1/DTD/svg11.dtd">
<!-- Creator: CorelDRAW X8 -->
<svg xmlns="http://www.w3.org/2000/svg" xml:space="preserve" width="280mm" height="47mm" version="1.1" style="shape-rendering:geometricPrecision; text-rendering:geometricPrecision; image-rendering:optimizeQuality; fill-rule:evenodd; clip-rule:evenodd"
viewBox="0 0 28000 4700"
 xmlns:xlink="http://www.w3.org/1999/xlink">
 <defs>
  <style type="text/css">
   <![CDATA[
    .fil0 {fill:black}
   ]]>
  </style>
 </defs>
 <g id="Capa_x0020_1">
  <metadata id="CorelCorpID_0Corel-Layer"/>
  <g id="_1547524601152">
   <path class="fil0" d="M15210 1964c-228,-265 452,-533 673,-796 304,-362 473,-539 82,-945 -471,-489 -527,131 -723,386 -559,730 -312,84 -829,58 -132,-7 -543,516 -781,681 -526,369 -2645,2187 -2579,1824 135,-734 905,-1050 1339,-1610 215,-278 533,-623 197,-945 -600,-574 -503,-2 -714,271 -430,557 -885,1086 -1274,1676 -244,371 -327,605 -788,682 -180,30 -1144,322 -1191,238 -41,-72 1211,-1565 1355,-1708 95,-95 651,-730 715,-822 158,-228 -366,-766 -698,-682 -38,10 -691,1132 -863,1323 -346,385 -621,849 -977,1240 -145,159 -332,455 -469,641 -159,217 -474,369 -410,649 207,903 814,323 1339,197 263,-63 600,-161 854,-247 354,-119 521,-285 715,124 176,372 263,379 657,205 181,-80 459,-338 640,-476 336,-256 2334,-1957 2530,-1914 81,17 -392,561 -468,616 -154,110 -499,496 -542,526 -162,110 -388,384 -550,533 -248,229 -165,600 49,707 476,238 293,56 575,-263 146,-166 366,-415 534,-550 169,-136 402,-480 591,-477 329,5 370,-67 673,-177 281,-103 461,-269 650,84 205,386 -266,790 321,934 385,94 145,83 443,473 203,267 492,105 813,74 550,-51 1216,-293 1799,-353 222,-22 780,-166 944,-139 120,19 455,456 633,435 73,-9 140,-160 181,-99l16 25c76,114 -49,380 468,271 223,-47 436,-104 657,-148 518,-103 885,-155 1397,-213 662,-76 1525,-93 2201,-33 189,16 624,208 674,107 205,-424 -254,-700 -534,-904 -114,-83 -1035,-11 -1257,-16 -107,-3 -649,106 -517,-74 65,-91 318,-266 427,-321 516,-261 2267,-1819 1757,-2357 -419,-443 -558,-264 -1158,-312 -410,-34 -953,48 -1355,106 -394,57 -557,-528 -904,-402 -737,268 -1716,369 -2513,476 -181,25 -423,129 -550,-49 -127,-176 -246,-310 -485,-164 -138,84 -582,617 -723,772 -615,675 -312,215 -871,148 -189,-23 -1872,1070 -2176,714zm2028 1668c164,157 1847,-266 2038,-394 310,-209 632,353 747,369 58,9 297,-213 345,-271 304,-365 841,-1078 1043,-1445 377,-683 845,-909 -246,-723 -790,134 -1010,218 -1832,167 -41,-2 -1323,772 -230,638 246,-30 657,-36 887,-91 287,-68 109,-486 559,-33 741,746 -115,706 -666,789 -156,24 -788,42 -936,58 -435,44 -579,-199 -789,-165 -154,26 -1027,998 -920,1101zm7336 -2489c-189,9 -764,193 -1408,77 -617,-113 -540,303 -857,814 -193,310 -274,453 -453,758 -109,188 -715,827 -338,725 445,-120 1435,-793 1930,-1076 351,-201 561,-458 855,-682 190,-145 928,-648 271,-616zm-7336 994c-8,0 -896,276 -920,287 -428,211 -121,255 25,699 68,204 140,263 255,33 82,-165 199,-221 271,-337 76,-122 526,-682 369,-682zm9718 1651c-271,51 -389,199 -255,427 170,289 221,267 551,329 681,127 90,-828 -296,-756z"/>
   <path class="fil0" d="M5436 1176c-57,-25 -90,-173 -230,-263 -65,-49 -271,-99 -353,-131 -616,-247 -953,-189 -1404,-321 -132,-41 -584,-369 -781,-369 -419,0 -476,673 -673,1010 -66,115 -140,246 -206,370 -106,205 -312,558 -378,772 -188,550 -394,846 -706,1372 -172,303 -419,386 -148,706 156,197 468,509 666,140 254,-493 517,-1044 780,-1528 263,-485 550,-1002 797,-1487 90,-164 263,-542 460,-411 254,181 936,238 936,238 -8,157 -1290,436 -1437,641 -148,206 -189,542 -74,797 41,90 172,238 263,287 98,50 320,74 320,206 0,164 -230,246 -427,279 -280,49 -616,107 -822,329 -443,492 206,764 592,624 295,-107 994,-468 1273,-641 1676,-1018 -1651,-994 172,-1602 247,-82 1167,-517 1298,-443 222,123 337,1010 214,1257 -189,378 -912,493 -805,1018 49,222 279,378 501,345 222,-41 386,-279 509,-443 518,-657 1199,-1438 1758,-2062 246,-279 797,-723 961,-978 288,-419 -238,-1010 -583,-706 -197,164 -1462,2127 -1676,1807 -205,-312 123,-1199 -164,-1585 -107,-132 -526,-353 -608,-263 -82,90 16,452 25,624 16,230 -25,427 -50,411z"/>
  </g>
 </g>
</svg>
