<?xml version="1.0" encoding="UTF-8"?>
<!DOCTYPE svg PUBLIC "-//W3C//DTD SVG 1.1//EN" "http://www.w3.org/Graphics/SVG/1.1/DTD/svg11.dtd">
<!-- Creator: CorelDRAW X8 -->
<svg xmlns="http://www.w3.org/2000/svg" xml:space="preserve" width="300mm" height="300mm" version="1.1" style="shape-rendering:geometricPrecision; text-rendering:geometricPrecision; image-rendering:optimizeQuality; fill-rule:evenodd; clip-rule:evenodd"
viewBox="0 0 30000 30000"
 xmlns:xlink="http://www.w3.org/1999/xlink">
 <defs>
  <style type="text/css">
   <![CDATA[
    .fil0 {fill:#F00214}
    .fil1 {fill:#FFC800}
   ]]>
  </style>
 </defs>
 <g id="Capa_x0020_1">
  <metadata id="CorelCorpID_0Corel-Layer"/>
  <circle class="fil0" cx="15000" cy="15000" r="12075"/>
  <g id="_2129965565072">
   <path class="fil1" d="M15555 7934c-873,151 -1808,1005 -2257,1552 -879,1069 -337,3088 1150,1565 614,-628 2241,-1387 2289,-2449 27,-583 -548,-777 -1182,-668zm2161 -2269c-719,87 -1478,425 -2073,658 -1451,569 -1948,82 -4220,1225 -748,376 -1064,617 -1531,1166 -651,766 -1381,1775 -473,2527 143,119 233,165 401,266 485,294 828,560 881,1106 43,437 -7,711 108,1163 215,841 217,1374 -169,2130 -620,1212 -2209,1395 -2781,2543 -829,1661 1884,1899 2815,596 485,-680 175,-1341 465,-2072 113,-285 345,-641 582,-731 442,-168 658,280 714,600 244,1395 -1964,3378 -878,4934 294,421 440,435 658,659 204,208 414,427 503,790 121,498 -107,777 -51,1143 102,661 1311,505 1067,-639 -329,-1543 1849,-1784 2649,-2604 1048,-1074 851,-2159 2025,-3214 980,-879 2045,-1231 2479,-2809 382,-1386 -238,-2724 -1905,-3109 -970,-224 -3882,515 -802,-3104 543,-638 2561,-2119 723,-3043 -345,-173 -744,-235 -1187,-181zm-1292 7592c-518,141 -830,461 -1625,788 -286,118 -556,251 -720,447 -181,216 -291,606 -180,930 99,291 282,439 333,794 49,341 -58,737 -51,1092 21,982 935,1168 2012,190l910 -862c284,-319 543,-533 821,-942 899,-1325 -132,-2807 -1500,-2437z"/>
   <path class="fil1" d="M19483 18969c-408,111 -805,488 -739,971 138,1017 1925,808 1815,-334 -45,-463 -524,-788 -1076,-637z"/>
   <path class="fil1" d="M19052 9599c-1029,256 -525,1629 463,1328 943,-287 511,-1570 -463,-1328z"/>
   <path class="fil1" d="M12905 4811c-369,63 -571,259 -540,635 29,359 300,568 758,471 791,-168 673,-1256 -218,-1106z"/>
   <path class="fil1" d="M8721 14311c-586,269 -270,1368 470,1011 228,-111 391,-391 270,-683 -82,-201 -434,-469 -740,-328z"/>
   <path class="fil1" d="M11797 5953c-626,161 -529,988 221,839 639,-127 402,-1000 -221,-839z"/>
   <path class="fil1" d="M9913 20068c-490,282 -55,887 410,609 388,-232 121,-915 -410,-609z"/>
   <path class="fil1" d="M19190 18497c264,255 660,48 520,-270 -112,-254 -664,-217 -520,270z"/>
  </g>
 </g>
</svg>
