<?xml version="1.0" encoding="UTF-8"?>
<!DOCTYPE svg PUBLIC "-//W3C//DTD SVG 1.1//EN" "http://www.w3.org/Graphics/SVG/1.1/DTD/svg11.dtd">
<!-- Creator: CorelDRAW X8 -->
<svg xmlns="http://www.w3.org/2000/svg" xml:space="preserve" width="300mm" height="170mm" version="1.1" style="shape-rendering:geometricPrecision; text-rendering:geometricPrecision; image-rendering:optimizeQuality; fill-rule:evenodd; clip-rule:evenodd"
viewBox="0 0 30000 17000"
 xmlns:xlink="http://www.w3.org/1999/xlink">
 <defs>
  <style type="text/css">
   <![CDATA[
    .fil0 {fill:black}
   ]]>
  </style>
 </defs>
 <g id="Capa_x0020_1">
  <metadata id="CorelCorpID_0Corel-Layer"/>
  <path class="fil0" d="M1580 11146l0 122c70,174 87,435 471,575 523,174 1098,-18 1446,-418 680,-715 88,-1552 785,-2249 401,-418 715,401 453,1150 -87,227 -192,506 -296,715 -105,244 -192,471 -297,715 -209,540 -191,1220 122,1656 262,383 698,610 715,1307 18,680 -349,1290 -139,1743 261,593 1011,436 1133,-157 69,-348 0,-575 -87,-889 -70,-296 -123,-592 -88,-924 70,-610 523,-819 942,-1080 540,-297 767,-436 1080,-942 698,-1150 297,-1464 1552,-2492 401,-314 697,-610 976,-1046 244,-436 418,-1063 331,-1639 -87,-575 -401,-1028 -767,-1255 -732,-453 -1150,-278 -1656,-366 -314,-52 -436,-244 -418,-575 35,-383 470,-1063 680,-1359 383,-593 1133,-1203 1237,-1796 122,-593 -418,-976 -924,-1063 -557,-87 -1202,226 -1603,418 -506,262 -976,314 -1587,436 -662,122 -1551,558 -2056,976 -192,140 -332,314 -488,523 -1377,1900 -140,1952 313,2475 175,227 227,419 227,785 17,1063 488,1342 -140,2510 -104,174 -331,418 -488,523 -244,191 -278,226 -575,435 -331,210 -680,576 -802,976 -34,70 -34,157 -52,210zm5439 -8489c-558,52 -959,523 -1308,871 -35,53 -52,53 -87,88 -314,331 -505,679 -471,1237 18,384 262,802 680,540 279,-191 436,-435 680,-662 70,-52 122,-87 174,-157 175,-139 349,-261 558,-470 174,-192 436,-506 506,-855 87,-470 -314,-644 -732,-592zm610 4096c-332,52 -663,401 -1116,593 -1168,540 -523,1290 -453,1603 87,471 -174,1133 174,1465 488,435 1255,-471 1534,-767 506,-593 1290,-1273 941,-2284 -122,-366 -557,-697 -1080,-610z"/>
  <path class="fil0" d="M20789 164l-262 0 -87 52c-52,0 -87,18 -122,35 -523,227 -836,785 -714,1343 69,296 209,662 209,976 17,331 35,784 -157,1011 -296,279 -523,-53 -819,-122 -419,-122 -523,-140 -750,-454 -157,-209 -279,-610 -244,-958 52,-419 401,-1081 -139,-1342 -279,-140 -698,-105 -976,34 -419,210 -611,698 -314,1186 226,418 52,627 104,1063 35,296 88,645 -279,837 -139,87 -331,35 -470,-18 -174,-35 -331,-69 -471,-139 -540,-279 -1359,331 -1203,1028 70,349 279,488 576,610 767,297 1412,-488 1935,140 209,261 139,662 174,1028 104,924 226,1168 -122,2022 -227,488 -610,1185 -680,1726 -52,488 -70,575 0,1063 52,314 244,662 436,784 366,245 592,-69 749,-278 70,-122 140,-262 209,-384 88,-157 140,-261 210,-401 383,-627 575,-906 505,-1847 -17,-314 -122,-454 -139,-1064 -18,-401 0,-767 0,-1168 0,-383 -87,-889 -87,-1098 0,-348 174,-680 505,-697 662,-17 1116,505 1203,1185 104,837 -349,1848 -122,2720 35,174 104,296 157,453 261,802 -576,1272 34,1865 279,261 593,157 872,331 262,139 331,506 227,872 -70,261 -227,749 -175,1028 175,767 1273,505 1203,-244 -17,-314 -244,-558 -349,-854 -122,-384 18,-697 70,-1063 157,-1064 -383,-802 -209,-2005 105,-732 70,-906 -174,-1516 -105,-262 -70,-157 -157,-454 -157,-662 -174,-1534 314,-1865 610,-401 1481,175 2091,-174 244,-122 436,-366 471,-715 35,-401 -192,-627 -436,-767 -523,-279 -1621,192 -2144,-69 -296,-157 -348,-436 -331,-837 0,-192 -17,-349 0,-558 70,-593 227,-837 296,-1516 70,-663 -348,-733 -418,-785z"/>
  <path class="fil0" d="M25809 5463c-157,18 -261,70 -418,105 -576,104 -872,-35 -1377,87 -541,139 -994,383 -1343,680 -278,226 -749,732 -697,1324 18,367 157,471 87,889 -69,366 -523,837 -435,1552 34,261 157,575 296,714 174,192 314,279 593,419 244,122 435,261 610,401 470,470 662,523 1516,470 331,-17 610,88 697,314 210,558 -313,1203 0,1726 262,505 994,383 942,-488 -35,-297 -140,-541 -157,-854 -53,-750 383,-977 749,-1273 175,-174 331,-314 454,-558 156,-279 69,-540 191,-819 279,-697 1116,-837 750,-2109 -87,-279 -209,-471 -349,-662 -104,-122 -157,-157 -261,-244 -157,-192 -349,-192 -523,-489 -105,-156 -70,-226 -87,-418 -70,-540 -610,-854 -1238,-767zm-1081 1726c-540,70 -645,366 -976,697 -436,436 -924,872 -836,1639 34,296 104,418 261,575 157,157 244,226 505,314 245,69 471,87 715,17 174,-52 418,-174 541,-279 296,-227 278,-471 784,-871 157,-105 314,-262 401,-436 453,-854 -436,-1778 -1395,-1656z"/>
  <path class="fil0" d="M13939 5463c-471,35 -419,87 -750,209 -697,210 -715,192 -1272,663 -70,35 -70,69 -140,104 -52,53 -279,332 -331,401 -122,175 -244,401 -314,645 -157,506 -87,994 -453,1499 -261,366 -610,941 -488,1412 209,872 680,819 1325,1116 104,52 209,104 331,157 819,331 1813,-663 1952,749 52,593 -314,1133 -122,1708 174,541 854,558 1011,-104 70,-297 -17,-575 -70,-854 -139,-523 -191,-1186 105,-1587 331,-435 645,-400 889,-1063 209,-558 52,-1133 261,-1673 192,-471 436,-924 18,-1482 -87,-139 -349,-366 -471,-488 -279,-209 -244,-227 -331,-645 -52,-296 -192,-470 -383,-593 -210,-122 -489,-209 -767,-174zm-576 1883c-453,52 -767,279 -958,540 -105,122 -192,331 -262,488 -174,384 -488,593 -575,941 -209,785 418,1255 1028,1116 244,-52 785,-366 994,-506 139,-87 296,-209 383,-366 105,-191 105,-366 175,-592 122,-349 453,-697 226,-1151 -191,-348 -592,-540 -1011,-470z"/>
  <path class="fil0" d="M9703 11146c-540,122 -819,854 -366,1168 139,104 296,174 523,139 279,-52 575,-384 540,-750 -17,-331 -314,-644 -697,-557z"/>
  <path class="fil0" d="M27169 4592c-366,52 -506,383 -297,732l244 348c471,384 1046,-157 820,-679 -105,-210 -471,-454 -767,-401z"/>
  <path class="fil0" d="M13102 3772c-715,210 -384,1221 279,1064 226,-53 470,-349 383,-663 -69,-244 -331,-488 -662,-401z"/>
  <path class="fil0" d="M5153 216c-592,105 -470,1064 140,889 209,-52 418,-261 383,-522 -17,-227 -261,-419 -523,-367z"/>
  <path class="fil0" d="M22271 12784c-471,140 -279,994 244,819 523,-156 244,-958 -244,-819z"/>
  <path class="fil0" d="M4334 1123c-436,192 -209,784 244,645 157,-52 279,-227 227,-453 -52,-157 -279,-279 -471,-192z"/>
  <path class="fil0" d="M28005 5864c-348,157 -157,662 209,540 140,-34 245,-209 192,-383 -52,-122 -226,-227 -401,-157z"/>
  <path class="fil0" d="M3201 11965c-366,87 -314,645 105,575 122,-17 244,-174 226,-348 -17,-140 -157,-279 -331,-227z"/>
  <path class="fil0" d="M9581 10483c-279,87 -192,488 87,436 244,-52 174,-505 -87,-436z"/>
 </g>
</svg>
