<?xml version="1.0" encoding="UTF-8"?>
<!DOCTYPE svg PUBLIC "-//W3C//DTD SVG 1.1//EN" "http://www.w3.org/Graphics/SVG/1.1/DTD/svg11.dtd">
<!-- Creator: CorelDRAW X8 -->
<svg xmlns="http://www.w3.org/2000/svg" xml:space="preserve" width="170mm" height="90mm" version="1.1" style="shape-rendering:geometricPrecision; text-rendering:geometricPrecision; image-rendering:optimizeQuality; fill-rule:evenodd; clip-rule:evenodd"
viewBox="0 0 17000 9000"
 xmlns:xlink="http://www.w3.org/1999/xlink">
 <defs>
  <style type="text/css">
   <![CDATA[
    .fil0 {fill:#FFC700}
   ]]>
  </style>
 </defs>
 <g id="Capa_x0020_1">
  <metadata id="CorelCorpID_0Corel-Layer"/>
  <path class="fil0" d="M9269 6015l-87 299c-496,94 -1129,-348 -1433,-538 -1363,-854 -983,-2094 586,-1370 241,112 479,227 666,342 252,155 381,303 626,402 -757,-1553 -1958,-1752 -3241,-2706 -305,-227 -889,-532 -1419,-551 350,369 872,677 1105,1325 200,557 -22,2562 -1165,1727 -235,-172 -440,-341 -669,-524 -2272,-1818 -283,-1272 737,-1506l-2349 -1012c-452,-231 -1821,-1034 -2011,-1437 99,948 1371,3020 2149,3946l589 631c735,715 1389,1168 2294,1651 368,195 775,283 1104,463 -159,-272 -489,-577 -509,-975 281,-129 774,166 975,270 274,143 694,331 774,597 -178,142 -127,60 -310,129 657,491 2811,1024 3896,1174 1236,172 3501,306 4808,-2 -1572,-217 -2018,8 -4029,-548 -1194,-330 -2502,-926 -3087,-1787z"/>
 </g>
</svg>
